# xmcd
#
# Track frame offsets:
#  150
#  17338
#  36211
#  48927
#  69360
#  92881
#  111890
#  132147
#  144078
#  163589
#  177489
#
# Disc length: 2737 seconds
#
# Revision: 0
# Processed by: cddbd v1.5.1PL2 Copyright (c) Steve Scherf et al.
# Submitted via: Collectorz.com_Music_Collector 6.11
#
DISCID=880aaf0b
DTITLE=Meazza, Max - West Coast Hotel
DYEAR=2006
DGENRE=
TTITLE0=The Long Goodbye
TTITLE1=Bleeding
TTITLE2=Alaska
TTITLE3=Summer Of 71
TTITLE4=Blue Hearth
TTITLE5=Duffle Jim
TTITLE6=Complicated Life
TTITLE7=Things To Do On Sunday When You Sleep
TTITLE8=Electric Kiss
TTITLE9=Watchin' Movies
TTITLE10=Telegram Blues
EXTD=
EXTT0=
EXTT1=
EXTT2=
EXTT3=
EXTT4=
EXTT5=
EXTT6=
EXTT7=
EXTT8=
EXTT9=
EXTT10=
PLAYORDER=
